# xmcd
#
# Track frame offsets:
#	150
#	26310
#	84668
#	108872
#	146496
#	160007
#	188843
#	227770
#	255019
#
# Disc length: 4148 seconds
#
# Revision: 1
# Processed by: cddbd v1.5.2PL0 Copyright (c) Steve Scherf et al.
# Submitted via: audiograbber 1.83.01
#
DISCID=5e103209
DTITLE=Grateful Dead - 78-12-19A Memorial Coliseum, State Fairgrounds, Jackson 
DTITLE=MS
DYEAR=1900
DGENRE=
TTITLE0=Mississippi Half-Step
TTITLE1=Franklin's Tower
TTITLE2=Minglewood Blues
TTITLE3=They Love Each Other
TTITLE4=Me and My Uncle
TTITLE5=Big River
TTITLE6=Loser
TTITLE7=El Paso
TTITLE8=Row Jimmy
EXTD=
EXTT0=
EXTT1=
EXTT2=
EXTT3=
EXTT4=
EXTT5=
EXTT6=
EXTT7=
EXTT8=
PLAYORDER=
